<svg xmlns="http://www.w3.org/2000/svg" width="63.025" height="75" viewBox="0 0 63.025 75">
  <path id="Icon_awesome-apple" data-name="Icon awesome-apple" d="M52.975,41.883c-.033-6.145,2.746-10.783,8.372-14.2-3.148-4.5-7.9-6.982-14.182-7.468-5.944-.469-12.441,3.466-14.819,3.466-2.512,0-8.272-3.3-12.793-3.3C10.211,20.535.281,27.835.281,42.687a41.733,41.733,0,0,0,2.411,13.6c2.143,6.145,9.879,21.215,17.95,20.964,4.22-.1,7.2-3,12.692-3,5.325,0,8.087,3,12.793,3,8.138-.117,15.137-13.814,17.179-19.976C52.389,52.131,52.975,42.2,52.975,41.883ZM43.5,14.39A15.771,15.771,0,0,0,47.516,2.25,17.755,17.755,0,0,0,36.147,8.094a16.018,16.018,0,0,0-4.286,12.039c4.37.335,8.355-1.909,11.637-5.743Z" transform="translate(-0.281 -2.25)" fill="#0f4c81"/>
</svg>
